# Blender v2.92.0 OBJ File: 'Ar.blend'
# www.blender.org
mtllib In.mtl
o In_Circle.008
v 0.000000 0.394749 0.062460
v -0.121984 0.375429 0.062460
v -0.232028 0.319359 0.062460
v -0.319359 0.232028 0.062460
v -0.375429 0.121984 0.062460
v -0.394749 -0.000000 0.062460
v -0.375429 -0.121984 0.062460
v -0.319359 -0.232028 0.062460
v -0.232028 -0.319359 0.062460
v -0.121984 -0.375429 0.062460
v 0.000000 -0.394750 0.062460
v 0.121984 -0.375429 0.062460
v 0.232028 -0.319359 0.062460
v 0.319359 -0.232028 0.062460
v 0.375429 -0.121984 0.062460
v 0.394749 0.000000 0.062460
v 0.375429 0.121985 0.062460
v 0.319359 0.232028 0.062460
v 0.232027 0.319359 0.062460
v 0.121984 0.375429 0.062460
v 0.000000 0.394749 -0.062460
v -0.121984 0.375429 -0.062460
v -0.232028 0.319359 -0.062460
v -0.319359 0.232028 -0.062460
v -0.375429 0.121984 -0.062460
v -0.394749 -0.000000 -0.062460
v -0.375429 -0.121984 -0.062460
v -0.319359 -0.232028 -0.062460
v -0.232028 -0.319359 -0.062460
v -0.121984 -0.375429 -0.062460
v 0.000000 -0.394750 -0.062460
v 0.121984 -0.375429 -0.062460
v 0.232028 -0.319359 -0.062460
v 0.319359 -0.232028 -0.062460
v 0.375429 -0.121984 -0.062460
v 0.394749 0.000000 -0.062460
v 0.375429 0.121985 -0.062460
v 0.319359 0.232028 -0.062460
v 0.232027 0.319359 -0.062460
v 0.121984 0.375429 -0.062460
v -0.154463 0.475387 0.062460
v 0.000000 0.499851 0.062460
v -0.293805 0.404388 0.062460
v -0.404388 0.293805 0.062460
v -0.475387 0.154463 0.062460
v -0.499852 -0.000000 0.062460
v -0.475387 -0.154463 0.062460
v -0.404388 -0.293806 0.062460
v -0.293805 -0.404389 0.062460
v -0.154463 -0.475387 0.062460
v 0.000000 -0.499852 0.062460
v 0.154463 -0.475387 0.062460
v 0.293806 -0.404388 0.062460
v 0.404389 -0.293805 0.062460
v 0.475387 -0.154462 0.062460
v 0.499852 0.000000 0.062460
v 0.475387 0.154463 0.062460
v 0.404388 0.293806 0.062460
v 0.293805 0.404389 0.062460
v 0.154462 0.475387 0.062460
v -0.154463 0.475387 -0.062460
v 0.000000 0.499851 -0.062460
v -0.293805 0.404388 -0.062460
v -0.404388 0.293805 -0.062460
v -0.475387 0.154463 -0.062460
v -0.499852 -0.000000 -0.062460
v -0.475387 -0.154463 -0.062460
v -0.404388 -0.293806 -0.062460
v -0.293805 -0.404389 -0.062460
v -0.154463 -0.475387 -0.062460
v 0.000000 -0.499852 -0.062460
v 0.154463 -0.475387 -0.062460
v 0.293806 -0.404388 -0.062460
v 0.404389 -0.293805 -0.062460
v 0.475387 -0.154462 -0.062460
v 0.499852 0.000000 -0.062460
v 0.475387 0.154463 -0.062460
v 0.404388 0.293806 -0.062460
v 0.293805 0.404389 -0.062460
v 0.154462 0.475387 -0.062460
v -0.121984 0.375429 -0.033758
v 0.000000 0.394749 -0.033758
v -0.232028 0.319359 -0.033758
v -0.319359 0.232028 -0.033758
v -0.375429 0.121984 -0.033758
v -0.394749 -0.000000 -0.033758
v -0.375429 -0.121984 -0.033758
v -0.319359 -0.232028 -0.033758
v -0.232028 -0.319359 -0.033758
v -0.121984 -0.375429 -0.033758
v 0.000000 -0.394750 -0.033758
v 0.121984 -0.375429 -0.033758
v 0.232028 -0.319359 -0.033758
v 0.319359 -0.232028 -0.033758
v 0.375429 -0.121984 -0.033758
v 0.394749 0.000000 -0.033758
v 0.375429 0.121985 -0.033758
v 0.319359 0.232028 -0.033758
v 0.232027 0.319359 -0.033758
v 0.121984 0.375429 -0.033758
v -0.121984 0.375429 0.033758
v 0.000000 0.394749 0.033758
v -0.232028 0.319359 0.033758
v -0.319359 0.232028 0.033758
v -0.375429 0.121984 0.033758
v -0.394749 -0.000000 0.033758
v -0.375429 -0.121984 0.033758
v -0.319359 -0.232028 0.033758
v -0.232028 -0.319359 0.033758
v -0.121984 -0.375429 0.033758
v 0.000000 -0.394750 0.033758
v 0.121984 -0.375429 0.033758
v 0.232028 -0.319359 0.033758
v 0.319359 -0.232028 0.033758
v 0.375429 -0.121984 0.033758
v 0.394749 0.000000 0.033758
v 0.375429 0.121985 0.033758
v 0.319359 0.232028 0.033758
v 0.232027 0.319359 0.033758
v 0.121984 0.375429 0.033758
vt 0.661357 0.646718
vt 0.661357 0.646718
vt 0.672540 0.607150
vt 0.672540 0.607150
vt 0.639217 0.304565
vt 0.639217 0.304565
vt 0.623629 0.308040
vt 0.623629 0.308040
vt 0.218810 0.162474
vt 0.206346 0.158299
vt 0.206111 0.196625
vt 0.218601 0.192003
vt 0.293916 0.112019
vt 0.302385 0.091930
vt 0.288012 0.070594
vt 0.282936 0.095419
vt 0.211442 0.233319
vt 0.222689 0.220331
vt 0.271389 0.060239
vt 0.270001 0.087402
vt 0.281976 0.262918
vt 0.287983 0.287719
vt 0.302450 0.264985
vt 0.293252 0.245473
vt 0.221809 0.264658
vt 0.230679 0.244591
vt 0.254064 0.060685
vt 0.256106 0.088102
vt 0.312952 0.233697
vt 0.301482 0.221391
vt 0.236180 0.287495
vt 0.241785 0.262337
vt 0.237301 0.071083
vt 0.242779 0.095802
vt 0.318461 0.197005
vt 0.305863 0.193073
vt 0.253128 0.299553
vt 0.254910 0.271786
vt 0.222786 0.092157
vt 0.231510 0.111802
vt 0.318461 0.158592
vt 0.306017 0.163465
vt 0.270983 0.299633
vt 0.268762 0.271989
vt 0.212090 0.122256
vt 0.223250 0.134806
vt 0.312913 0.122315
vt 0.301886 0.135499
vt 0.631896 0.679961
vt 0.631727 0.728194
vt 0.612235 0.716066
vt 0.616502 0.670383
vt 0.594729 0.682670
vt 0.602678 0.644009
vt 0.580924 0.631277
vt 0.591775 0.603422
vt 0.572171 0.566916
vt 0.584862 0.552595
vt 0.569325 0.495888
vt 0.582615 0.496502
vt 0.572667 0.425146
vt 0.585255 0.440634
vt 0.581869 0.361614
vt 0.592522 0.390461
vt 0.596030 0.311511
vt 0.603705 0.350893
vt 0.613764 0.279742
vt 0.617710 0.325804
vt 0.633335 0.269416
vt 0.633165 0.317649
vt 0.652827 0.281545
vt 0.648559 0.327227
vt 0.670332 0.314940
vt 0.662384 0.353601
vt 0.684138 0.366333
vt 0.673286 0.394188
vt 0.692891 0.430694
vt 0.680199 0.445016
vt 0.695736 0.501722
vt 0.682446 0.501109
vt 0.692394 0.572465
vt 0.679807 0.556976
vt 0.683193 0.635997
vt 0.669032 0.686099
vt 0.651298 0.717868
vt 0.647352 0.671807
vt 0.645263 0.661773
vt 0.648143 0.708864
vt 0.628403 0.713264
vt 0.629674 0.665248
vt 0.659793 0.640985
vt 0.666541 0.682541
vt 0.671842 0.604919
vt 0.681798 0.636873
vt 0.680230 0.557106
vt 0.692420 0.576329
vt 0.684137 0.502225
vt 0.697367 0.506836
vt 0.683179 0.445649
vt 0.696154 0.435197
vt 0.677451 0.392916
vt 0.688902 0.368423
vt 0.667514 0.349187
vt 0.676318 0.313052
vt 0.654339 0.318744
vt 0.659636 0.274503
vt 0.640488 0.256549
vt 0.620749 0.260950
vt 0.609099 0.328828
vt 0.602350 0.287272
vt 0.597050 0.364894
vt 0.587093 0.332940
vt 0.588662 0.412707
vt 0.576471 0.393484
vt 0.584755 0.467588
vt 0.571525 0.462977
vt 0.585712 0.524164
vt 0.572737 0.534617
vt 0.591440 0.576898
vt 0.579990 0.601390
vt 0.601378 0.620626
vt 0.592573 0.656762
vt 0.614552 0.651070
vt 0.609255 0.695311
vt 0.188990 0.681740
vt 0.173552 0.690336
vt 0.158139 0.681198
vt 0.144259 0.655221
vt 0.133271 0.614946
vt 0.126251 0.564318
vt 0.123885 0.508291
vt 0.126407 0.452350
vt 0.133567 0.401970
vt 0.144666 0.362084
vt 0.158618 0.336596
vt 0.174056 0.328000
vt 0.189470 0.337138
vt 0.203350 0.363115
vt 0.214337 0.403389
vt 0.221358 0.454018
vt 0.223723 0.510045
vt 0.221202 0.565986
vt 0.214041 0.616365
vt 0.202942 0.656251
vt 0.157127 0.680808
vt 0.143399 0.653844
vt 0.132645 0.612795
vt 0.125917 0.561677
vt 0.123875 0.505497
vt 0.126719 0.449751
vt 0.134169 0.399898
vt 0.145497 0.360817
vt 0.159593 0.336334
vt 0.175079 0.328845
vt 0.190437 0.339084
vt 0.204166 0.366048
vt 0.214920 0.407097
vt 0.221647 0.458214
vt 0.223689 0.514395
vt 0.220846 0.570141
vt 0.213396 0.619994
vt 0.202068 0.659074
vt 0.187971 0.683558
vt 0.172486 0.691046
vt 0.582615 0.496502
vt 0.584862 0.552595
vt 0.609099 0.328828
vt 0.647352 0.671807
vt 0.585255 0.440634
vt 0.597050 0.364894
vt 0.631896 0.679961
vt 0.592522 0.390461
vt 0.588662 0.412707
vt 0.629674 0.665248
vt 0.645263 0.661773
vt 0.603705 0.350893
vt 0.584755 0.467588
vt 0.659793 0.640985
vt 0.617710 0.325804
vt 0.585712 0.524164
vt 0.671842 0.604919
vt 0.633165 0.317649
vt 0.591440 0.576898
vt 0.680230 0.557106
vt 0.648559 0.327227
vt 0.601378 0.620626
vt 0.684137 0.502225
vt 0.662384 0.353601
vt 0.614552 0.651070
vt 0.683179 0.445649
vt 0.673286 0.394188
vt 0.677451 0.392916
vt 0.680199 0.445016
vt 0.616502 0.670383
vt 0.667514 0.349187
vt 0.682446 0.501109
vt 0.602678 0.644009
vt 0.654339 0.318744
vt 0.679807 0.556976
vt 0.591775 0.603422
vn -0.5878 -0.8090 0.0000
vn -0.8090 -0.5878 0.0000
vn -0.0000 1.0000 0.0000
vn -0.3090 0.9511 0.0000
vn 0.8090 -0.5878 0.0000
vn 0.9511 -0.3090 0.0000
vn -0.9511 -0.3090 0.0000
vn 1.0000 0.0000 0.0000
vn 0.9511 0.3090 0.0000
vn -0.3090 -0.9511 0.0000
vn -0.5878 0.8090 0.0000
vn 0.8090 0.5878 0.0000
vn 0.0000 -1.0000 0.0000
vn -0.8090 0.5878 0.0000
vn 0.5878 0.8090 0.0000
vn 0.3090 -0.9511 0.0000
vn -0.9511 0.3090 0.0000
vn 0.3090 0.9511 0.0000
vn 0.5878 -0.8090 0.0000
vn -1.0000 -0.0000 0.0000
vn 0.0000 -0.0000 1.0000
vn -0.0000 0.0000 -1.0000
usemtl In
s 1
f 19/1/1 99/2/1 98/3/2 18/4/2
f 31/5/3 111/6/3 112/7/4 32/8/4
f 54/9/5 74/10/5 75/11/6 55/12/6
f 47/13/7 67/14/7 68/15/2 48/16/2
f 55/12/6 75/11/6 76/17/8 56/18/8
f 48/16/2 68/15/2 69/19/1 49/20/1
f 42/21/3 62/22/3 61/23/4 41/24/4
f 56/18/8 76/17/8 77/25/9 57/26/9
f 49/20/1 69/19/1 70/27/10 50/28/10
f 41/24/4 61/23/4 63/29/11 43/30/11
f 57/26/9 77/25/9 78/31/12 58/32/12
f 50/28/10 70/27/10 71/33/13 51/34/13
f 43/30/11 63/29/11 64/35/14 44/36/14
f 58/32/12 78/31/12 79/37/15 59/38/15
f 51/34/13 71/33/13 72/39/16 52/40/16
f 44/36/14 64/35/14 65/41/17 45/42/17
f 59/38/15 79/37/15 80/43/18 60/44/18
f 52/40/16 72/39/16 73/45/19 53/46/19
f 45/42/17 65/41/17 66/47/20 46/48/20
f 60/44/18 80/43/18 62/22/3 42/21/3
f 53/46/19 73/45/19 74/10/5 54/9/5
f 46/48/20 66/47/20 67/14/7 47/13/7
f 1/49/21 42/50/21 41/51/21 2/52/21
f 2/52/21 41/51/21 43/53/21 3/54/21
f 3/54/21 43/53/21 44/55/21 4/56/21
f 4/56/21 44/55/21 45/57/21 5/58/21
f 5/58/21 45/57/21 46/59/21 6/60/21
f 6/60/21 46/59/21 47/61/21 7/62/21
f 7/62/21 47/61/21 48/63/21 8/64/21
f 8/64/21 48/63/21 49/65/21 9/66/21
f 9/66/21 49/65/21 50/67/21 10/68/21
f 10/68/21 50/67/21 51/69/21 11/70/21
f 11/70/21 51/69/21 52/71/21 12/72/21
f 12/72/21 52/71/21 53/73/21 13/74/21
f 13/74/21 53/73/21 54/75/21 14/76/21
f 14/76/21 54/75/21 55/77/21 15/78/21
f 15/78/21 55/77/21 56/79/21 16/80/21
f 16/80/21 56/79/21 57/81/21 17/82/21
f 17/82/21 57/81/21 58/83/21 18/4/21
f 18/4/21 58/83/21 59/84/21 19/1/21
f 19/1/21 59/84/21 60/85/21 20/86/21
f 20/86/21 60/85/21 42/50/21 1/49/21
f 22/87/22 61/88/22 62/89/22 21/90/22
f 23/91/22 63/92/22 61/88/22 22/87/22
f 24/93/22 64/94/22 63/92/22 23/91/22
f 25/95/22 65/96/22 64/94/22 24/93/22
f 26/97/22 66/98/22 65/96/22 25/95/22
f 27/99/22 67/100/22 66/98/22 26/97/22
f 28/101/22 68/102/22 67/100/22 27/99/22
f 29/103/22 69/104/22 68/102/22 28/101/22
f 30/105/22 70/106/22 69/104/22 29/103/22
f 31/5/22 71/107/22 70/106/22 30/105/22
f 32/8/22 72/108/22 71/107/22 31/5/22
f 33/109/22 73/110/22 72/108/22 32/8/22
f 34/111/22 74/112/22 73/110/22 33/109/22
f 35/113/22 75/114/22 74/112/22 34/111/22
f 36/115/22 76/116/22 75/114/22 35/113/22
f 37/117/22 77/118/22 76/116/22 36/115/22
f 38/119/22 78/120/22 77/118/22 37/117/22
f 39/121/22 79/122/22 78/120/22 38/119/22
f 40/123/22 80/124/22 79/122/22 39/121/22
f 21/90/22 62/89/22 80/124/22 40/123/22
f 81/125/22 82/126/22 100/127/22 99/128/22 98/129/22 97/130/22 96/131/22 95/132/22 94/133/22 93/134/22 92/135/22 91/136/22 90/137/22 89/138/22 88/139/22 87/140/22 86/141/22 85/142/22 84/143/22 83/144/22
f 101/145/21 103/146/21 104/147/21 105/148/21 106/149/21 107/150/21 108/151/21 109/152/21 110/153/21 111/154/21 112/155/21 113/156/21 114/157/21 115/158/21 116/159/21 117/160/21 118/161/21 119/162/21 120/163/21 102/164/21
f 6/60/8 86/165/8 85/166/6 5/58/6
f 32/8/4 112/7/4 113/167/11 33/109/11
f 20/86/10 100/168/10 99/2/1 19/1/1
f 7/62/9 87/169/9 86/165/8 6/60/8
f 33/109/11 113/167/11 114/170/14 34/111/14
f 1/49/13 82/171/13 100/168/10 20/86/10
f 8/64/12 88/172/12 87/169/9 7/62/9
f 34/111/14 114/170/14 115/173/17 35/113/17
f 21/90/13 102/174/13 101/175/16 22/87/16
f 9/66/15 89/176/15 88/172/12 8/64/12
f 35/113/17 115/173/17 116/177/20 36/115/20
f 22/87/16 101/175/16 103/178/19 23/91/19
f 10/68/18 90/179/18 89/176/15 9/66/15
f 36/115/20 116/177/20 117/180/7 37/117/7
f 23/91/19 103/178/19 104/181/5 24/93/5
f 11/70/3 91/182/3 90/179/18 10/68/18
f 37/117/7 117/180/7 118/183/2 38/119/2
f 24/93/5 104/181/5 105/184/6 25/95/6
f 12/72/4 92/185/4 91/182/3 11/70/3
f 38/119/2 118/183/2 119/186/1 39/121/1
f 25/95/6 105/184/6 106/187/8 26/97/8
f 13/74/11 93/188/11 92/185/4 12/72/4
f 39/121/1 119/186/1 120/189/10 40/123/10
f 26/97/8 106/187/8 107/190/9 27/99/9
f 14/76/14 94/191/14 93/188/11 13/74/11
f 40/123/10 120/189/10 102/174/13 21/90/13
f 27/99/9 107/190/9 108/192/12 28/101/12
f 15/78/17 95/193/17 94/191/14 14/76/14
f 2/52/16 81/194/16 82/171/13 1/49/13
f 28/101/12 108/192/12 109/195/15 29/103/15
f 16/80/20 96/196/20 95/193/17 15/78/17
f 3/54/19 83/197/19 81/194/16 2/52/16
f 29/103/15 109/195/15 110/198/18 30/105/18
f 17/82/7 97/199/7 96/196/20 16/80/20
f 4/56/5 84/200/5 83/197/19 3/54/19
f 30/105/18 110/198/18 111/6/3 31/5/3
f 18/4/2 98/3/2 97/199/7 17/82/7
f 5/58/6 85/166/6 84/200/5 4/56/5
