# Blender v2.92.0 OBJ File: 'Ar.blend'
# www.blender.org
mtllib Telegram.mtl
o Telegram_Circle.002
v 0.000000 0.394749 0.062460
v -0.121984 0.375429 0.062460
v -0.232028 0.319359 0.062460
v -0.319359 0.232028 0.062460
v -0.375429 0.121984 0.062460
v -0.394749 -0.000000 0.062460
v -0.375429 -0.121984 0.062460
v -0.319359 -0.232028 0.062460
v -0.232028 -0.319359 0.062460
v -0.121984 -0.375429 0.062460
v 0.000000 -0.394750 0.062460
v 0.121984 -0.375429 0.062460
v 0.232028 -0.319359 0.062460
v 0.319359 -0.232028 0.062460
v 0.375429 -0.121984 0.062460
v 0.394749 0.000000 0.062460
v 0.375429 0.121985 0.062460
v 0.319359 0.232028 0.062460
v 0.232027 0.319359 0.062460
v 0.121984 0.375429 0.062460
v 0.000000 0.394749 -0.062460
v -0.121984 0.375429 -0.062460
v -0.232028 0.319359 -0.062460
v -0.319359 0.232028 -0.062460
v -0.375429 0.121984 -0.062460
v -0.394749 -0.000000 -0.062460
v -0.375429 -0.121984 -0.062460
v -0.319359 -0.232028 -0.062460
v -0.232028 -0.319359 -0.062460
v -0.121984 -0.375429 -0.062460
v 0.000000 -0.394750 -0.062460
v 0.121984 -0.375429 -0.062460
v 0.232028 -0.319359 -0.062460
v 0.319359 -0.232028 -0.062460
v 0.375429 -0.121984 -0.062460
v 0.394749 0.000000 -0.062460
v 0.375429 0.121985 -0.062460
v 0.319359 0.232028 -0.062460
v 0.232027 0.319359 -0.062460
v 0.121984 0.375429 -0.062460
v -0.154463 0.475387 0.062460
v 0.000000 0.499851 0.062460
v -0.293805 0.404388 0.062460
v -0.404388 0.293805 0.062460
v -0.475387 0.154463 0.062460
v -0.499852 -0.000000 0.062460
v -0.475387 -0.154463 0.062460
v -0.404388 -0.293806 0.062460
v -0.293805 -0.404389 0.062460
v -0.154463 -0.475387 0.062460
v 0.000000 -0.499852 0.062460
v 0.154463 -0.475387 0.062460
v 0.293806 -0.404388 0.062460
v 0.404389 -0.293805 0.062460
v 0.475387 -0.154462 0.062460
v 0.499852 0.000000 0.062460
v 0.475387 0.154463 0.062460
v 0.404388 0.293806 0.062460
v 0.293805 0.404389 0.062460
v 0.154462 0.475387 0.062460
v -0.154463 0.475387 -0.062460
v 0.000000 0.499851 -0.062460
v -0.293805 0.404388 -0.062460
v -0.404388 0.293805 -0.062460
v -0.475387 0.154463 -0.062460
v -0.499852 -0.000000 -0.062460
v -0.475387 -0.154463 -0.062460
v -0.404388 -0.293806 -0.062460
v -0.293805 -0.404389 -0.062460
v -0.154463 -0.475387 -0.062460
v 0.000000 -0.499852 -0.062460
v 0.154463 -0.475387 -0.062460
v 0.293806 -0.404388 -0.062460
v 0.404389 -0.293805 -0.062460
v 0.475387 -0.154462 -0.062460
v 0.499852 0.000000 -0.062460
v 0.475387 0.154463 -0.062460
v 0.404388 0.293806 -0.062460
v 0.293805 0.404389 -0.062460
v 0.154462 0.475387 -0.062460
v -0.121984 0.375429 -0.033758
v 0.000000 0.394749 -0.033758
v -0.232028 0.319359 -0.033758
v -0.319359 0.232028 -0.033758
v -0.375429 0.121984 -0.033758
v -0.394749 -0.000000 -0.033758
v -0.375429 -0.121984 -0.033758
v -0.319359 -0.232028 -0.033758
v -0.232028 -0.319359 -0.033758
v -0.121984 -0.375429 -0.033758
v 0.000000 -0.394750 -0.033758
v 0.121984 -0.375429 -0.033758
v 0.232028 -0.319359 -0.033758
v 0.319359 -0.232028 -0.033758
v 0.375429 -0.121984 -0.033758
v 0.394749 0.000000 -0.033758
v 0.375429 0.121985 -0.033758
v 0.319359 0.232028 -0.033758
v 0.232027 0.319359 -0.033758
v 0.121984 0.375429 -0.033758
v -0.121984 0.375429 0.033758
v 0.000000 0.394749 0.033758
v -0.232028 0.319359 0.033758
v -0.319359 0.232028 0.033758
v -0.375429 0.121984 0.033758
v -0.394749 -0.000000 0.033758
v -0.375429 -0.121984 0.033758
v -0.319359 -0.232028 0.033758
v -0.232028 -0.319359 0.033758
v -0.121984 -0.375429 0.033758
v 0.000000 -0.394750 0.033758
v 0.121984 -0.375429 0.033758
v 0.232028 -0.319359 0.033758
v 0.319359 -0.232028 0.033758
v 0.375429 -0.121984 0.033758
v 0.394749 0.000000 0.033758
v 0.375429 0.121985 0.033758
v 0.319359 0.232028 0.033758
v 0.232027 0.319359 0.033758
v 0.121984 0.375429 0.033758
vt 0.417860 0.691493
vt 0.417860 0.691493
vt 0.431832 0.666163
vt 0.431832 0.666163
vt 0.355462 0.461389
vt 0.355462 0.461389
vt 0.352896 0.517301
vt 0.352896 0.517301
vt 0.218810 0.162474
vt 0.206346 0.158299
vt 0.206111 0.196625
vt 0.218601 0.192003
vt 0.293916 0.112019
vt 0.302385 0.091930
vt 0.288012 0.070594
vt 0.282936 0.095419
vt 0.211442 0.233319
vt 0.222689 0.220331
vt 0.271389 0.060239
vt 0.270001 0.087402
vt 0.281976 0.262918
vt 0.287983 0.287719
vt 0.302450 0.264985
vt 0.293252 0.245473
vt 0.221809 0.264658
vt 0.230679 0.244591
vt 0.254064 0.060685
vt 0.256106 0.088102
vt 0.312952 0.233697
vt 0.301482 0.221391
vt 0.236180 0.287495
vt 0.241785 0.262337
vt 0.237301 0.071083
vt 0.242779 0.095802
vt 0.318461 0.197005
vt 0.305863 0.193073
vt 0.253128 0.299553
vt 0.254910 0.271786
vt 0.222786 0.092157
vt 0.231510 0.111802
vt 0.318461 0.158592
vt 0.306017 0.163465
vt 0.270983 0.299633
vt 0.268762 0.271989
vt 0.212090 0.122256
vt 0.223250 0.134806
vt 0.312913 0.122315
vt 0.301886 0.135499
vt 0.402676 0.694102
vt 0.402507 0.742335
vt 0.383015 0.730206
vt 0.387283 0.684524
vt 0.365510 0.696811
vt 0.373458 0.658150
vt 0.351704 0.645418
vt 0.362556 0.617563
vt 0.342951 0.581057
vt 0.355643 0.566735
vt 0.340106 0.510029
vt 0.353396 0.510642
vt 0.343447 0.439287
vt 0.356035 0.454775
vt 0.352649 0.375755
vt 0.363302 0.404602
vt 0.366810 0.325652
vt 0.374485 0.365034
vt 0.384544 0.293883
vt 0.388490 0.339944
vt 0.404115 0.283557
vt 0.403946 0.331790
vt 0.423607 0.295685
vt 0.419339 0.341368
vt 0.441112 0.329081
vt 0.433164 0.367742
vt 0.454918 0.380474
vt 0.444066 0.408329
vt 0.463671 0.444835
vt 0.450979 0.459157
vt 0.466516 0.515863
vt 0.453226 0.515250
vt 0.463175 0.586605
vt 0.450587 0.571117
vt 0.453973 0.650137
vt 0.443320 0.621291
vt 0.439812 0.700240
vt 0.432137 0.660858
vt 0.422078 0.732009
vt 0.418132 0.685947
vt 0.421866 0.737486
vt 0.402309 0.748148
vt 0.402415 0.699912
vt 0.439558 0.705413
vt 0.442964 0.626404
vt 0.453654 0.655067
vt 0.450165 0.576106
vt 0.462772 0.591378
vt 0.452731 0.520194
vt 0.466022 0.520579
vt 0.450411 0.464140
vt 0.463084 0.449601
vt 0.443432 0.413432
vt 0.454247 0.385391
vt 0.432477 0.373032
vt 0.440375 0.334235
vt 0.418618 0.346896
vt 0.422826 0.301141
vt 0.403212 0.337583
vt 0.403318 0.289347
vt 0.387767 0.346002
vt 0.383761 0.300009
vt 0.373795 0.371332
vt 0.366069 0.332082
vt 0.362663 0.411091
vt 0.351973 0.382427
vt 0.342854 0.446117
vt 0.339605 0.516916
vt 0.355216 0.573355
vt 0.342543 0.587894
vt 0.362195 0.624063
vt 0.351380 0.652104
vt 0.373150 0.664463
vt 0.365252 0.703260
vt 0.387009 0.690599
vt 0.382801 0.736354
vt 0.646822 0.659849
vt 0.631429 0.669427
vt 0.615973 0.661273
vt 0.601968 0.636184
vt 0.590785 0.596616
vt 0.583518 0.546443
vt 0.580878 0.490575
vt 0.583125 0.434482
vt 0.590038 0.383654
vt 0.600941 0.343067
vt 0.614765 0.316694
vt 0.630159 0.307115
vt 0.645615 0.315270
vt 0.659620 0.340359
vt 0.670803 0.379927
vt 0.678070 0.430100
vt 0.680709 0.485968
vt 0.678462 0.542061
vt 0.671549 0.592888
vt 0.660647 0.633475
vt 0.616245 0.666818
vt 0.602273 0.641489
vt 0.591141 0.601729
vt 0.583940 0.551432
vt 0.581374 0.495519
vt 0.583694 0.439465
vt 0.590673 0.388757
vt 0.601628 0.348357
vt 0.615487 0.322222
vt 0.630893 0.312908
vt 0.646338 0.321328
vt 0.660310 0.346657
vt 0.671441 0.386417
vt 0.678643 0.436714
vt 0.681209 0.492627
vt 0.678889 0.548680
vt 0.671910 0.599389
vt 0.660955 0.639788
vt 0.647096 0.665924
vt 0.631690 0.675238
vt 0.388490 0.339944
vt 0.374485 0.365034
vt 0.355216 0.573355
vt 0.442964 0.626404
vt 0.403946 0.331790
vt 0.362195 0.624063
vt 0.450165 0.576106
vt 0.419339 0.341368
vt 0.373150 0.664463
vt 0.452731 0.520194
vt 0.433164 0.367742
vt 0.387009 0.690599
vt 0.450411 0.464140
vt 0.444066 0.408329
vt 0.402415 0.699912
vt 0.443432 0.413432
vt 0.450979 0.459157
vt 0.387283 0.684524
vt 0.402676 0.694102
vt 0.432477 0.373032
vt 0.453226 0.515250
vt 0.373458 0.658150
vt 0.418618 0.346896
vt 0.450587 0.571117
vt 0.362556 0.617563
vt 0.403212 0.337583
vt 0.443320 0.621291
vt 0.355643 0.566735
vt 0.387767 0.346002
vt 0.432137 0.660858
vt 0.353396 0.510642
vt 0.373795 0.371332
vt 0.418132 0.685947
vt 0.356035 0.454775
vt 0.362663 0.411091
vt 0.363302 0.404602
vn 0.3090 -0.9511 -0.0000
vn 0.5878 -0.8090 0.0000
vn -0.9511 0.3090 0.0000
vn -1.0000 -0.0000 0.0000
vn 0.8090 -0.5878 0.0000
vn 0.9511 -0.3090 0.0000
vn -0.9511 -0.3090 0.0000
vn -0.8090 -0.5878 0.0000
vn 1.0000 0.0000 0.0000
vn -0.5878 -0.8090 0.0000
vn -0.0000 1.0000 0.0000
vn -0.3090 0.9511 0.0000
vn 0.9511 0.3090 0.0000
vn -0.3090 -0.9511 0.0000
vn -0.5878 0.8090 0.0000
vn 0.8090 0.5878 0.0000
vn 0.0000 -1.0000 0.0000
vn -0.8090 0.5878 0.0000
vn 0.5878 0.8090 0.0000
vn 0.3090 0.9511 0.0000
vn 0.0000 -0.0000 1.0000
vn -0.0000 0.0000 -1.0000
usemtl Telegram
s 1
f 22/1/1 101/2/1 103/3/2 23/4/2
f 35/5/3 115/6/3 116/7/4 36/8/4
f 54/9/5 74/10/5 75/11/6 55/12/6
f 47/13/7 67/14/7 68/15/8 48/16/8
f 55/12/6 75/11/6 76/17/9 56/18/9
f 48/16/8 68/15/8 69/19/10 49/20/10
f 42/21/11 62/22/11 61/23/12 41/24/12
f 56/18/9 76/17/9 77/25/13 57/26/13
f 49/20/10 69/19/10 70/27/14 50/28/14
f 41/24/12 61/23/12 63/29/15 43/30/15
f 57/26/13 77/25/13 78/31/16 58/32/16
f 50/28/14 70/27/14 71/33/17 51/34/17
f 43/30/15 63/29/15 64/35/18 44/36/18
f 58/32/16 78/31/16 79/37/19 59/38/19
f 51/34/17 71/33/17 72/39/1 52/40/1
f 44/36/18 64/35/18 65/41/3 45/42/3
f 59/38/19 79/37/19 80/43/20 60/44/20
f 52/40/1 72/39/1 73/45/2 53/46/2
f 45/42/3 65/41/3 66/47/4 46/48/4
f 60/44/20 80/43/20 62/22/11 42/21/11
f 53/46/2 73/45/2 74/10/5 54/9/5
f 46/48/4 66/47/4 67/14/7 47/13/7
f 1/49/21 42/50/21 41/51/21 2/52/21
f 2/52/21 41/51/21 43/53/21 3/54/21
f 3/54/21 43/53/21 44/55/21 4/56/21
f 4/56/21 44/55/21 45/57/21 5/58/21
f 5/58/21 45/57/21 46/59/21 6/60/21
f 6/60/21 46/59/21 47/61/21 7/62/21
f 7/62/21 47/61/21 48/63/21 8/64/21
f 8/64/21 48/63/21 49/65/21 9/66/21
f 9/66/21 49/65/21 50/67/21 10/68/21
f 10/68/21 50/67/21 51/69/21 11/70/21
f 11/70/21 51/69/21 52/71/21 12/72/21
f 12/72/21 52/71/21 53/73/21 13/74/21
f 13/74/21 53/73/21 54/75/21 14/76/21
f 14/76/21 54/75/21 55/77/21 15/78/21
f 15/78/21 55/77/21 56/79/21 16/80/21
f 16/80/21 56/79/21 57/81/21 17/82/21
f 17/82/21 57/81/21 58/83/21 18/84/21
f 18/84/21 58/83/21 59/85/21 19/86/21
f 19/86/21 59/85/21 60/87/21 20/88/21
f 20/88/21 60/87/21 42/50/21 1/49/21
f 22/1/22 61/89/22 62/90/22 21/91/22
f 23/4/22 63/92/22 61/89/22 22/1/22
f 24/93/22 64/94/22 63/92/22 23/4/22
f 25/95/22 65/96/22 64/94/22 24/93/22
f 26/97/22 66/98/22 65/96/22 25/95/22
f 27/99/22 67/100/22 66/98/22 26/97/22
f 28/101/22 68/102/22 67/100/22 27/99/22
f 29/103/22 69/104/22 68/102/22 28/101/22
f 30/105/22 70/106/22 69/104/22 29/103/22
f 31/107/22 71/108/22 70/106/22 30/105/22
f 32/109/22 72/110/22 71/108/22 31/107/22
f 33/111/22 73/112/22 72/110/22 32/109/22
f 34/113/22 74/114/22 73/112/22 33/111/22
f 35/5/22 75/115/22 74/114/22 34/113/22
f 36/8/22 76/116/22 75/115/22 35/5/22
f 37/117/22 77/118/22 76/116/22 36/8/22
f 38/119/22 78/120/22 77/118/22 37/117/22
f 39/121/22 79/122/22 78/120/22 38/119/22
f 40/123/22 80/124/22 79/122/22 39/121/22
f 21/91/22 62/90/22 80/124/22 40/123/22
f 81/125/22 82/126/22 100/127/22 99/128/22 98/129/22 97/130/22 96/131/22 95/132/22 94/133/22 93/134/22 92/135/22 91/136/22 90/137/22 89/138/22 88/139/22 87/140/22 86/141/22 85/142/22 84/143/22 83/144/22
f 101/145/21 103/146/21 104/147/21 105/148/21 106/149/21 107/150/21 108/151/21 109/152/21 110/153/21 111/154/21 112/155/21 113/156/21 114/157/21 115/158/21 116/159/21 117/160/21 118/161/21 119/162/21 120/163/21 102/164/21
f 10/68/20 90/165/20 89/166/19 9/66/19
f 36/8/4 116/7/4 117/167/7 37/117/7
f 23/4/2 103/3/2 104/168/5 24/93/5
f 11/70/11 91/169/11 90/165/20 10/68/20
f 37/117/7 117/167/7 118/170/8 38/119/8
f 24/93/5 104/168/5 105/171/6 25/95/6
f 12/72/12 92/172/12 91/169/11 11/70/11
f 38/119/8 118/170/8 119/173/10 39/121/10
f 25/95/6 105/171/6 106/174/9 26/97/9
f 13/74/15 93/175/15 92/172/12 12/72/12
f 39/121/10 119/173/10 120/176/14 40/123/14
f 26/97/9 106/174/9 107/177/13 27/99/13
f 14/76/18 94/178/18 93/175/15 13/74/15
f 40/123/14 120/176/14 102/179/17 21/91/17
f 27/99/13 107/177/13 108/180/16 28/101/16
f 15/78/3 95/181/3 94/178/18 14/76/18
f 2/52/1 81/182/1 82/183/17 1/49/17
f 28/101/16 108/180/16 109/184/19 29/103/19
f 16/80/4 96/185/4 95/181/3 15/78/3
f 3/54/2 83/186/2 81/182/1 2/52/1
f 29/103/19 109/184/19 110/187/20 30/105/20
f 17/82/7 97/188/7 96/185/4 16/80/4
f 4/56/5 84/189/5 83/186/2 3/54/2
f 30/105/20 110/187/20 111/190/11 31/107/11
f 18/84/8 98/191/8 97/188/7 17/82/7
f 5/58/6 85/192/6 84/189/5 4/56/5
f 31/107/11 111/190/11 112/193/12 32/109/12
f 19/86/10 99/194/10 98/191/8 18/84/8
f 6/60/9 86/195/9 85/192/6 5/58/6
f 32/109/12 112/193/12 113/196/15 33/111/15
f 20/88/14 100/197/14 99/194/10 19/86/10
f 7/62/13 87/198/13 86/195/9 6/60/9
f 33/111/15 113/196/15 114/199/18 34/113/18
f 1/49/17 82/183/17 100/197/14 20/88/14
f 8/64/16 88/200/16 87/198/13 7/62/13
f 34/113/18 114/199/18 115/6/3 35/5/3
f 21/91/17 102/179/17 101/2/1 22/1/1
f 9/66/19 89/166/19 88/200/16 8/64/16
